<svg id="svgexport-15_-_2025-03-05T132820.129" data-name="svgexport-15 - 2025-03-05T132820.129" xmlns="http://www.w3.org/2000/svg" width="40.388" height="36.454" viewBox="0 0 40.388 36.454">
  <path id="Path_25175" data-name="Path 25175" d="M38.945,12.564,36.586,29.433c-.511,3.539-2.458,5.407-5.662,5.407-.256,0-.511-.02-.786-.039a7.333,7.333,0,0,0,.079-1.16V16.594a4.634,4.634,0,0,0-5.249-5.23H5.365c0-.039.02-.1.02-.138l.472-3.3A6.374,6.374,0,0,1,8.078,3.54,6.409,6.409,0,0,1,12.9,2.616l20.762,2.91a6.384,6.384,0,0,1,4.365,2.241A6.189,6.189,0,0,1,38.945,12.564Z" transform="translate(1.298 -2.482)" fill="rgba(132,195,189,0.59)"/>
  <path id="Path_25176" data-name="Path 25176" d="M2.023,29.3V12.262a4.634,4.634,0,0,1,5.244-5.24H28.24a4.636,4.636,0,0,1,5.24,5.24V29.3a4.636,4.636,0,0,1-5.24,5.243H7.266A4.634,4.634,0,0,1,2.023,29.3Z" transform="translate(-1.976 1.859)" fill="#84c3bd"/>
  <g id="Pharmacy_Bill" data-name="Pharmacy Bill" transform="translate(3.775 10.652)">
    <path id="Path_25217" data-name="Path 25217" d="M5.5,5.03V19.62a.752.752,0,0,0,1.09.67L8,19.58l1.55.77a1.017,1.017,0,0,0,.9,0L12,19.57l1.55.78a1,1,0,0,0,.89,0L16,19.57l1.42.71a.744.744,0,0,0,1.08-.67V5.03A1.5,1.5,0,0,0,17,3.53H7A1.5,1.5,0,0,0,5.5,5.03Zm10,11h-4a.5.5,0,0,1,0-1h4a.5.5,0,0,1,0,1Zm0-2h-4a.5.5,0,0,1,0-1h4a.5.5,0,0,1,0,1Zm0-2h-4a.5.5,0,0,1,0-1h4a.5.5,0,0,1,0,1Zm-2-5H14v-.5a.5.5,0,0,1,1,0v.5h.5a.5.5,0,0,1,0,1H15v.5a.5.5,0,0,1-1,0v-.5h-.5a.5.5,0,0,1,0-1Zm-5-1h2a.5.5,0,0,1,0,1h-2a.5.5,0,0,1,0-1Zm0,2h3a.5.5,0,0,1,0,1h-3a.5.5,0,0,1,0-1Zm0,3h1a.5.5,0,0,1,0,1h-1a.5.5,0,0,1,0-1Zm0,2h1a.5.5,0,0,1,0,1h-1a.5.5,0,0,1,0-1Zm0,2h1a.5.5,0,0,1,0,1h-1a.5.5,0,0,1,0-1Z" fill="#fff"/>
  </g>
</svg>
